<?xml version="1.0" encoding="UTF-8" standalone="no"?>
<svg
   xmlns:dc="http://purl.org/dc/elements/1.1/"
   xmlns:cc="http://creativecommons.org/ns#"
   xmlns:rdf="http://www.w3.org/1999/02/22-rdf-syntax-ns#"
   xmlns:svg="http://www.w3.org/2000/svg"
   xmlns="http://www.w3.org/2000/svg"
   xmlns:sodipodi="http://sodipodi.sourceforge.net/DTD/sodipodi-0.dtd"
   xmlns:inkscape="http://www.inkscape.org/namespaces/inkscape"
   inkscape:version="1.0 (b51213c273, 2020-08-10)"
   id="svg1350"
   version="1.1"
   viewBox="0 0 793.74998 793.75002"
   height="3000"
   width="3000"
   sodipodi:docname="squirtle.svg">
  <defs
     id="defs1344">
    <inkscape:path-effect
       effect="powerstroke"
       id="path-effect839"
       is_visible="true"
       lpeversion="1"
       offset_points="0.15283658,3.5406671 | 0.5,7.9375 | 0.91294267,4.9287974"
       sort_points="true"
       interpolator_type="CentripetalCatmullRom"
       interpolator_beta="0.2"
       start_linecap_type="zerowidth"
       linejoin_type="round"
       miter_limit="4"
       scale_width="1"
       end_linecap_type="zerowidth" />
    <inkscape:path-effect
       effect="powerstroke"
       id="path-effect835"
       is_visible="true"
       lpeversion="1"
       offset_points="0.18842462,3.6578315 | 2.0176222,10.01682 | 3.8352992,3.178419"
       sort_points="true"
       interpolator_type="CentripetalCatmullRom"
       interpolator_beta="0.2"
       start_linecap_type="zerowidth"
       linejoin_type="round"
       miter_limit="4"
       scale_width="1"
       end_linecap_type="zerowidth" />
  </defs>
  <sodipodi:namedview
     borderlayer="true"
     inkscape:pagecheckerboard="true"
     units="px"
     showgrid="false"
     inkscape:document-rotation="0"
     inkscape:current-layer="layer1"
     inkscape:document-units="px"
     inkscape:cy="1365.65"
     inkscape:cx="1117.2727"
     inkscape:zoom="0.20538258"
     inkscape:pageshadow="2"
     inkscape:pageopacity="0.0"
     borderopacity="1.0"
     bordercolor="#666666"
     pagecolor="#ffffff"
     id="base"
     inkscape:snap-global="true"
     inkscape:snap-smooth-nodes="true"
     inkscape:snap-midpoints="true"
     inkscape:snap-intersection-paths="true"
     inkscape:object-paths="true" />
  <metadata
     id="metadata1347">
    <rdf:RDF>
      <cc:Work
         rdf:about="">
        <dc:format>image/svg+xml</dc:format>
        <dc:type
           rdf:resource="http://purl.org/dc/dcmitype/StillImage" />
        <dc:title></dc:title>
      </cc:Work>
    </rdf:RDF>
  </metadata>
  <g
     id="layer1"
     inkscape:groupmode="layer"
     inkscape:label="Layer 1">
    <g
       id="g1013"
       style="opacity:1;stroke-width:0.625504"
       transform="matrix(1.5987102,0,0,1.5987102,-203.79951,-206.11799)">
      <path
         style="color:#000000;font-style:normal;font-variant:normal;font-weight:normal;font-stretch:normal;font-size:medium;line-height:normal;font-family:sans-serif;font-variant-ligatures:normal;font-variant-position:normal;font-variant-caps:normal;font-variant-numeric:normal;font-variant-alternates:normal;font-variant-east-asian:normal;font-feature-settings:normal;font-variation-settings:normal;text-indent:0;text-align:start;text-decoration:none;text-decoration-line:none;text-decoration-style:solid;text-decoration-color:#000000;letter-spacing:normal;word-spacing:normal;text-transform:none;writing-mode:lr-tb;direction:ltr;text-orientation:mixed;dominant-baseline:auto;baseline-shift:baseline;text-anchor:start;white-space:normal;shape-padding:0;shape-margin:0;inline-size:0;clip-rule:nonzero;display:inline;overflow:visible;visibility:visible;isolation:auto;mix-blend-mode:normal;color-interpolation:sRGB;color-interpolation-filters:linearRGB;solid-color:#000000;solid-opacity:1;vector-effect:none;fill:#26a8d3;fill-opacity:1;fill-rule:nonzero;stroke:none;stroke-width:9.92988;stroke-linecap:round;stroke-linejoin:round;stroke-miterlimit:4;stroke-dasharray:none;stroke-dashoffset:0;stroke-opacity:1;paint-order:markers fill stroke;color-rendering:auto;image-rendering:auto;shape-rendering:auto;text-rendering:auto;enable-background:accumulate;stop-color:#000000;stop-opacity:1"
         d="m 548.07894,353.37093 c 0,30.25313 62.59313,29.3582 53.18213,103.93721 -9.3209,73.86498 -162.11081,109.84395 -228.78434,109.84394 -62.29109,0 -205.28692,-15.8949 -217.61851,-108.2701 -8.84849,-66.28354 44.15447,-70.79664 44.15447,-105.51105 -1e-5,-98.12621 78.14114,-177.67321 174.53312,-177.67322 96.39199,0 174.53314,79.54701 174.53313,177.67322 z"
         id="path1015" />
      <path
         style="color:#000000;font-style:normal;font-variant:normal;font-weight:normal;font-stretch:normal;font-size:medium;line-height:normal;font-family:sans-serif;font-variant-ligatures:normal;font-variant-position:normal;font-variant-caps:normal;font-variant-numeric:normal;font-variant-alternates:normal;font-variant-east-asian:normal;font-feature-settings:normal;font-variation-settings:normal;text-indent:0;text-align:start;text-decoration:none;text-decoration-line:none;text-decoration-style:solid;text-decoration-color:#000000;letter-spacing:normal;word-spacing:normal;text-transform:none;writing-mode:lr-tb;direction:ltr;text-orientation:mixed;dominant-baseline:auto;baseline-shift:baseline;text-anchor:start;white-space:normal;shape-padding:0;shape-margin:0;inline-size:0;clip-rule:nonzero;display:inline;overflow:visible;visibility:visible;isolation:auto;mix-blend-mode:normal;color-interpolation:sRGB;color-interpolation-filters:linearRGB;solid-color:#000000;solid-opacity:1;vector-effect:none;fill:#000000;fill-opacity:1;fill-rule:nonzero;stroke:none;stroke-width:9.92988;stroke-linecap:round;stroke-linejoin:round;stroke-miterlimit:4;stroke-dasharray:none;stroke-dashoffset:0;stroke-opacity:1;paint-order:markers fill stroke;color-rendering:auto;image-rendering:auto;shape-rendering:auto;text-rendering:auto;enable-background:accumulate;stop-color:#000000;stop-opacity:1"
         d="m 373.54492,167.75977 c -100.7589,1e-5 -182.47071,83.27118 -182.4707,185.61132 0,6.65874 -2.28443,11.44133 -6.51953,17 -4.2351,5.55867 -10.48592,11.41365 -16.88672,18.66211 -12.8016,14.49694 -25.38016,35.67286 -20.67774,70.89844 3.34518,25.05852 15.78586,45.26546 33.00782,60.74219 17.22195,15.47673 39.13161,26.49397 62.34961,34.48828 46.43599,15.98862 98.30822,19.92773 130.1289,19.92773 34.76454,10e-6 89.95297,-9.10447 138.73242,-27.74609 24.38973,-9.32081 47.13741,-21.01337 64.80079,-35.58789 17.66337,-14.57452 30.46952,-32.39392 33.12695,-53.45313 4.97866,-39.4542 -10.18422,-61.73978 -25.66016,-75.51367 -7.73797,-6.88694 -15.34241,-12.03524 -20.35156,-16.70703 -5.00915,-4.67178 -7.10938,-7.88474 -7.10938,-12.71094 2e-5,-102.34014 -81.71179,-185.61132 -182.4707,-185.61132 z m 0,15.875 c 92.02507,0 166.59571,75.82404 166.5957,169.73632 0,10.30037 5.72524,18.32061 12.15821,24.32032 6.43296,5.9997 13.88911,10.96173 20.62305,16.95507 13.46787,11.98668 24.89718,26.54316 20.46484,61.66797 -2.00302,15.87328 -11.79069,30.24926 -27.48047,43.19532 -15.68978,12.94605 -37.05623,24.0988 -60.36328,33.00585 -46.61411,17.81411 -101.15741,26.69923 -133.06641,26.69922 -30.4704,0 -81.24139,-4.00987 -124.95898,-19.0625 -21.8588,-7.52631 -41.90359,-17.80301 -56.9082,-31.28711 -15.00462,-13.48409 -25.0622,-29.90412 -27.88282,-51.0332 -4.14606,-31.05796 5.35209,-45.27996 16.83985,-58.28906 5.74388,-6.50455 12.19075,-12.42846 17.61718,-19.55078 5.42644,-7.12233 9.76563,-15.92263 9.76563,-26.6211 -1e-5,-93.91228 74.57064,-169.73631 166.5957,-169.73632 z"
         id="path1017" />
    </g>
    <path
       style="fill:#000000;fill-rule:nonzero;stroke:none;stroke-width:15.875;stroke-linecap:butt;stroke-linejoin:miter;stroke-miterlimit:4;stroke-dasharray:none;stroke-opacity:1"
       d="m 358.10318,513.60804 c -2.68665,1.28613 -0.31202,17.79257 3.96473,25.10648 3.70092,6.32914 10.20905,13.29748 17.25172,13.64442 8.17216,0.40257 12.41584,-3.19808 11.54481,-12.27808 -0.5301,-5.52602 -5.95468,-14.11098 -11.66814,-18.75501 -5.80977,-4.72232 -18.79125,-8.81974 -21.09312,-7.71781 z"
       id="path837-6"
       sodipodi:nodetypes="sassas" />
    <path
       style="fill:#000000;fill-rule:nonzero;stroke:none;stroke-width:15.875;stroke-linecap:butt;stroke-linejoin:miter;stroke-miterlimit:4;stroke-dasharray:none;stroke-opacity:1"
       d="m 452.85545,513.60802 c 2.68665,1.28614 0.31202,17.79258 -3.96473,25.10649 -3.70092,6.32913 -10.20905,13.29748 -17.25172,13.64441 -8.17216,0.40257 -12.41584,-3.19807 -11.54481,-12.27808 0.5301,-5.52602 5.95468,-14.11098 11.66814,-18.75501 5.80977,-4.72232 18.79125,-8.81973 21.09312,-7.71781 z"
       id="path841"
       sodipodi:nodetypes="sassas" />
    <path
       id="path849"
       style="color:#000000;font-style:normal;font-variant:normal;font-weight:normal;font-stretch:normal;font-size:medium;line-height:normal;font-family:sans-serif;font-variant-ligatures:normal;font-variant-position:normal;font-variant-caps:normal;font-variant-numeric:normal;font-variant-alternates:normal;font-variant-east-asian:normal;font-feature-settings:normal;font-variation-settings:normal;text-indent:0;text-align:start;text-decoration:none;text-decoration-line:none;text-decoration-style:solid;text-decoration-color:#000000;letter-spacing:normal;word-spacing:normal;text-transform:none;writing-mode:lr-tb;direction:ltr;text-orientation:mixed;dominant-baseline:auto;baseline-shift:baseline;text-anchor:start;white-space:normal;shape-padding:0;shape-margin:0;inline-size:0;clip-rule:nonzero;display:inline;overflow:visible;visibility:visible;isolation:auto;mix-blend-mode:normal;color-interpolation:sRGB;color-interpolation-filters:linearRGB;solid-color:#000000;solid-opacity:1;vector-effect:none;fill:#0d81a6;fill-opacity:1;fill-rule:nonzero;stroke:none;stroke-width:15.875;stroke-linecap:round;stroke-linejoin:round;stroke-miterlimit:4;stroke-dasharray:none;stroke-dashoffset:0;stroke-opacity:1;paint-order:markers fill stroke;color-rendering:auto;image-rendering:auto;shape-rendering:auto;text-rendering:auto;enable-background:accumulate;stop-color:#000000"
       d="m 746.31929,496.47161 c -0.0771,2.56112 -0.20283,5.18131 -0.42879,7.92199 -0.25015,3.03405 -0.59397,6.18137 -1.03685,9.44792 -0.20011,1.47625 -0.44853,2.94377 -0.74517,4.40259 -0.29666,1.45885 -0.64105,2.90904 -1.03271,4.35055 -0.39163,1.44151 -0.83083,2.87423 -1.31605,4.29849 -0.48521,1.42426 -1.01637,2.84027 -1.59366,4.24726 -0.5773,1.40713 -1.20084,2.80537 -1.86878,4.19524 -0.66791,1.38987 -1.38103,2.77127 -2.1381,4.14401 -0.75707,1.37274 -1.5577,2.73629 -2.40246,4.09193 -0.84468,1.35566 -1.73339,2.70298 -2.66435,4.04158 -0.93096,1.3386 -1.90477,2.66874 -2.92046,3.99033 -1.01564,1.3216 -2.07266,2.63443 -3.1716,3.93911 -1.09897,1.30464 -2.23952,2.60174 -3.42031,3.88955 -1.18075,1.28774 -2.40208,2.56654 -3.66316,3.83751 -2.52217,2.54184 -5.20382,5.04988 -8.03849,7.5246 -2.83469,2.47471 -5.82262,4.91677 -8.95804,7.3247 -3.13539,2.40796 -6.41231,4.77356 -9.81968,7.09671 -3.40737,2.32312 -6.94527,4.60312 -10.60123,6.8389 -3.65597,2.23579 -7.43051,4.42711 -11.31174,6.5729 -3.88126,2.14576 -7.86881,4.24626 -11.95199,6.29946 -4.08327,2.05316 -8.26193,4.05895 -12.52374,6.01689 -4.26176,1.95799 -8.60725,3.86763 -13.02434,5.72773 -4.41711,1.86015 -8.90576,3.67146 -13.45479,5.43119 -4.54902,1.75972 -9.15816,3.46794 -13.81582,5.12463 -4.65765,1.65673 -9.36431,3.26195 -14.10911,4.81482 -4.74473,1.55294 -9.52742,3.05343 -14.33544,4.50255 -4.80799,1.44916 -9.64173,2.84648 -14.48913,4.19194 -4.84741,1.34545 -9.70882,2.63951 -14.57175,3.88129 -4.86292,1.24173 -9.72708,2.43088 -14.58167,3.56899 -4.8546,1.13811 -9.69891,2.22473 -14.52133,3.25916 -4.82244,1.03451 -9.62281,2.01687 -14.38917,2.94774 -4.76635,0.93088 -9.49866,1.81062 -14.18512,2.6379 -4.68646,0.82738 -9.32727,1.60264 -13.90996,2.32646 -4.58275,0.72378 -9.10796,1.39634 -13.56304,2.01666 -4.45508,0.62032 -8.83973,1.18835 -13.14333,1.70522 -4.30357,0.5168 -8.52596,0.98197 -12.65423,1.39535 -4.12823,0.4134 -8.16256,0.77552 -12.09162,1.08557 -3.92908,0.30998 -7.75272,0.5683 -11.4588,0.77493 -3.706,0.20666 -7.29496,0.36187 -10.75408,0.46511 -3.45909,0.10344 -6.78834,0.1546 -9.97663,0.1546 -6.08919,0 -12.68588,-0.093 -19.70387,-0.2999 -7.01794,-0.20685 -14.45757,-0.52777 -22.23352,-0.98232 -7.7759,-0.45449 -15.88788,-1.04296 -24.25098,-1.78612 -4.18153,-0.37156 -8.42561,-0.78211 -12.72199,-1.23349 -4.29624,-0.45141 -8.64456,-0.94332 -13.03425,-1.47962 -4.38972,-0.53635 -8.82115,-1.11593 -13.28296,-1.74235 -4.46168,-0.62636 -8.95385,-1.29921 -13.46634,-2.02081 -4.51244,-0.72149 -9.04518,-1.49226 -13.58697,-2.31405 -4.5418,-0.82183 -9.09251,-1.69502 -13.64229,-2.62222 -4.54984,-0.92719 -9.09849,-1.90836 -13.63491,-2.94609 -4.53645,-1.03769 -9.06128,-2.13151 -13.56302,-3.28479 -4.5017,-1.15332 -8.98021,-2.36686 -13.42586,-3.64087 -4.44566,-1.27404 -8.8577,-2.60866 -13.22594,-4.00852 -4.36823,-1.3999 -8.69154,-2.86441 -12.95908,-4.39348 -4.26753,-1.52912 -8.47946,-3.12329 -12.62615,-4.78425 -4.14668,-1.66097 -8.22805,-3.38868 -12.23373,-5.18416 -4.00569,-1.79551 -7.93561,-3.65866 -11.78016,-5.59141 -3.84456,-1.93269 -7.60385,-3.93441 -11.26712,-6.00699 -3.66325,-2.07254 -7.23111,-4.2158 -10.69294,-6.4308 -3.46181,-2.21507 -6.81741,-4.5027 -10.05763,-6.86291 -3.24025,-2.36017 -6.36516,-4.79352 -9.36366,-7.30156 -1.499252,-1.254 -2.966836,-2.52475 -4.403405,-3.81353 -1.436569,-1.28882 -2.842139,-2.59522 -4.214232,-3.92012 -1.372109,-1.32485 -2.710933,-2.66777 -4.016759,-4.02997 -1.305859,-1.36229 -2.578224,-2.74391 -3.816026,-4.14481 -1.237801,-1.40092 -2.441502,-2.82136 -3.609472,-4.26216 -1.167954,-1.44087 -2.299968,-2.90152 -3.396332,-4.38359 -1.096331,-1.48203 -2.156948,-2.9854 -3.179882,-4.50999 -1.022935,-1.52455 -2.008236,-3.0705 -2.955983,-4.63887 -0.947748,-1.56836 -1.858021,-3.15924 -2.728791,-4.77271 -0.870753,-1.61341 -1.702163,-3.25005 -2.494164,-4.90983 -0.791985,-1.65983 -1.543986,-3.34287 -2.255412,-5.05031 -0.711442,-1.70745 -1.382613,-3.43932 -2.011689,-5.19569 -0.629093,-1.75639 -1.216395,-3.53784 -1.761363,-5.34439 -0.544952,-1.80664 -1.047043,-3.63837 -1.506081,-5.49643 -0.459038,-1.85814 -0.875342,-3.74247 -1.246674,-5.65338 -0.371317,-1.91087 -0.697981,-3.84869 -0.979818,-5.81369 -0.414274,-2.88836 -0.743816,-5.67808 -0.992223,-8.37638 -0.248408,-2.69827 -0.415649,-5.30492 -0.507255,-7.82452 -0.0032,-0.098 0.0016,-0.18644 -0.0016,-0.2842 -0.0096,0.32588 -0.04237,0.62455 -0.04956,0.95337 -0.05595,2.52734 -0.04045,5.14136 0.05116,7.8485 0.09161,2.70711 0.258863,5.50701 0.507271,8.40612 0.248391,2.8991 0.577933,5.89685 0.992207,9.00017 0.281837,2.1112 0.608485,4.19345 0.979818,6.24653 0.371332,2.05313 0.787636,4.07753 1.246674,6.07392 0.459038,1.99639 0.961129,3.96432 1.506081,5.90539 0.544952,1.94103 1.13227,3.85469 1.761363,5.74179 0.629092,1.88708 1.300263,3.74779 2.011689,5.58229 0.711442,1.83452 1.463427,3.64291 2.255412,5.42623 0.792001,1.7833 1.623411,3.54152 2.494164,5.27501 0.87077,1.73352 1.781059,3.44287 2.728791,5.12795 0.947747,1.68507 1.933064,3.34619 2.955999,4.98418 1.022934,1.63804 2.083519,3.25307 3.179866,4.84542 1.096348,1.59236 2.228363,3.16187 3.396332,4.70995 1.16797,1.54801 2.371687,3.0742 3.609472,4.57934 1.237802,1.50517 2.510183,2.98937 3.816026,4.45302 1.305842,1.46358 2.644666,2.9064 4.016775,4.32986 1.372093,1.42346 2.777647,2.82787 4.214216,4.21257 1.436569,1.38471 2.904169,2.74959 4.403425,4.09691 2.99849,2.69465 6.12341,5.30934 9.36364,7.84519 3.24024,2.53582 6.59582,4.99358 10.05763,7.37346 3.46183,2.3798 7.02969,4.68236 10.69294,6.90911 3.66326,2.22679 7.42258,4.37743 11.26712,6.45393 3.84455,2.07655 7.77448,4.07871 11.78018,6.00784 4.00568,1.9291 8.08703,3.78536 12.23371,5.56992 4.14669,1.78461 8.35862,3.49747 12.62615,5.14037 4.26754,1.64286 8.59086,3.21575 12.9591,4.71982 4.36824,1.50404 8.78028,2.93875 13.22594,4.3076 4.44564,1.36883 8.92414,2.67186 13.42584,3.91102 4.50174,1.23911 9.02657,2.41439 13.56304,3.52931 4.53642,1.11493 9.08505,2.16966 13.63489,3.16585 4.54978,0.99618 9.10051,1.93421 13.6423,2.81721 4.54179,0.88295 9.07454,1.71067 13.58696,2.48588 4.51249,0.77527 9.00462,1.49816 13.46634,2.17113 4.46176,0.67303 8.89324,1.29584 13.28296,1.87208 4.38969,0.57625 8.73796,1.10536 13.03425,1.59038 4.29633,0.48495 8.54047,0.92592 12.72199,1.32514 8.36311,0.79844 16.47508,1.43081 24.25098,1.91915 7.77595,0.48834 15.21558,0.83279 22.23352,1.05499 7.018,0.22224 13.61468,0.32219 19.70387,0.32219 3.1883,0 6.51754,-0.055 9.97665,-0.16603 3.4591,-0.11095 7.04806,-0.27781 10.75406,-0.49983 3.70605,-0.222 7.52973,-0.4997 11.45882,-0.83276 3.92904,-0.3331 7.96337,-0.72154 12.0916,-1.16571 4.12827,-0.44416 8.35068,-0.94417 12.65423,-1.49948 4.30361,-0.5553 8.68827,-1.16592 13.14335,-1.83239 4.45507,-0.66647 8.98029,-1.38856 13.56302,-2.16619 4.5827,-0.77766 9.2235,-1.61105 13.90996,-2.49997 4.68646,-0.88887 9.41877,-1.83354 14.18514,-2.83371 4.76636,-1.00016 9.56673,-2.05604 14.38917,-3.16748 4.8224,-1.11145 9.66671,-2.27845 14.52131,-3.50124 4.85459,-1.22279 9.71875,-2.50086 14.58169,-3.83502 4.86293,-1.33415 9.72433,-2.72407 14.57173,-4.16964 4.8474,-1.44554 9.68115,-2.94719 14.48913,-4.50419 4.80802,-1.55698 9.59071,-3.16948 14.33546,-4.83797 4.74478,-1.66845 9.45146,-3.39256 14.10911,-5.17256 4.65765,-1.77999 9.26678,-3.61565 13.8158,-5.50634 4.54903,-1.89066 9.0377,-3.83657 13.45479,-5.83514 4.41709,-1.99854 8.76258,-4.05036 13.02436,-6.15402 4.26181,-2.10367 8.4405,-4.25873 12.52373,-6.46468 4.08314,-2.20598 8.07072,-4.46243 11.95198,-6.76786 3.88125,-2.30549 7.65577,-4.65986 11.31174,-7.06203 3.65596,-2.40208 7.19387,-4.85175 10.60123,-7.34779 3.40737,-2.49603 6.68424,-5.0383 9.81968,-7.62545 3.13542,-2.58711 6.12337,-5.21029 8.95804,-7.86914 2.83469,-2.65884 5.51633,-5.35376 8.03851,-8.08477 1.26106,-1.36551 2.48241,-2.73971 3.66314,-4.12333 1.18079,-1.3836 2.32134,-2.77694 3.42033,-4.17869 1.09892,-1.40175 2.15589,-2.81244 3.17158,-4.23241 1.01569,-1.41994 1.9895,-2.84873 2.92046,-4.28694 0.93098,-1.43822 1.81964,-2.88574 2.66435,-4.34228 0.84476,-1.45653 1.64539,-2.92189 2.40247,-4.39678 0.75707,-1.47489 1.47019,-2.95888 2.13809,-4.45217 0.66795,-1.49328 1.29148,-2.99575 1.86878,-4.50753 0.57731,-1.51173 1.10845,-3.03344 1.59367,-4.56365 0.48521,-1.53027 0.92441,-3.06944 1.31606,-4.61824 0.39164,-1.54878 0.73605,-3.107 1.03269,-4.67439 0.29664,-1.56741 0.54506,-3.14369 0.74519,-4.72974 0.44287,-3.50965 0.78668,-6.89121 1.03683,-10.15101 0.25016,-3.25974 0.40679,-6.39837 0.47502,-9.42227 0.0575,-2.54522 0.0182,-4.96487 -0.0462,-7.35197 z" />
    <path
       id="path860"
       style="color:#000000;font-style:normal;font-variant:normal;font-weight:normal;font-stretch:normal;font-size:medium;line-height:normal;font-family:sans-serif;font-variant-ligatures:normal;font-variant-position:normal;font-variant-caps:normal;font-variant-numeric:normal;font-variant-alternates:normal;font-variant-east-asian:normal;font-feature-settings:normal;font-variation-settings:normal;text-indent:0;text-align:start;text-decoration:none;text-decoration-line:none;text-decoration-style:solid;text-decoration-color:#000000;letter-spacing:normal;word-spacing:normal;text-transform:none;writing-mode:lr-tb;direction:ltr;text-orientation:mixed;dominant-baseline:auto;baseline-shift:baseline;text-anchor:start;white-space:normal;shape-padding:0;shape-margin:0;inline-size:0;clip-rule:nonzero;display:inline;overflow:visible;visibility:visible;isolation:auto;mix-blend-mode:normal;color-interpolation:sRGB;color-interpolation-filters:linearRGB;solid-color:#000000;solid-opacity:1;vector-effect:none;fill:#80cae2;fill-opacity:1;fill-rule:nonzero;stroke:none;stroke-width:15.875;stroke-linecap:round;stroke-linejoin:round;stroke-miterlimit:4;stroke-dasharray:none;stroke-dashoffset:0;stroke-opacity:1;paint-order:markers fill stroke;color-rendering:auto;image-rendering:auto;shape-rendering:auto;text-rendering:auto;enable-background:accumulate;stop-color:#000000"
       d="m 393.39056,87.460789 c -4.59755,0 -9.16734,0.118784 -13.70761,0.352771 -4.54022,0.233924 -9.05089,0.582858 -13.5283,1.045077 -4.47738,0.462251 -8.92188,1.037627 -13.33085,1.722546 -4.40898,0.684904 -8.78195,1.479862 -13.1169,2.381807 -4.33495,0.901944 -8.63184,1.910379 -12.88722,3.023736 -4.25534,1.113342 -8.46914,2.331671 -12.63934,3.650783 -4.17023,1.319111 -8.29716,2.739581 -12.37665,4.258831 -4.07951,1.51926 -8.11181,3.13661 -12.09492,4.85036 -3.98323,1.71377 -7.91705,3.52358 -11.79835,5.4262 -3.88133,1.90263 -7.71055,3.89799 -11.4844,5.98385 -3.7739,2.08587 -7.49229,4.26235 -11.15311,6.52582 -3.66087,2.26345 -7.26389,4.61415 -10.80615,7.04958 -3.54226,2.43544 -7.02369,4.9559 -10.44177,7.55769 -3.4181,2.60177 -6.7726,5.28511 -10.06095,8.04759 -3.28834,2.76247 -6.51053,5.60343 -9.66353,8.52096 -3.15304,2.91756 -6.2375,5.9117 -9.24966,8.97868 -3.01213,3.06698 -5.95187,6.20739 -8.81756,9.41818 -2.86569,3.21078 -5.65697,6.49222 -8.37062,9.84118 -2.71365,3.34895 -5.35026,6.76532 -7.90631,10.2468 -2.55605,3.4815 -5.0318,7.02757 -7.42467,10.63595 -2.39287,3.6084 -4.70238,7.27886 -6.92651,11.00854 -2.22411,3.72968 -4.36283,7.51847 -6.41262,11.3638 -2.04978,3.84521 -4.01068,7.74719 -5.88058,11.70249 -1.86988,3.95527 -3.64842,7.96418 -5.33283,12.02385 -1.68444,4.0597 -3.2752,8.17034 -4.76859,12.32874 -1.49337,4.15844 -2.88938,8.36476 -4.18612,12.61624 -1.29677,4.2515 -2.49426,8.54826 -3.58884,12.88722 -1.09455,4.33896 -2.08652,8.72002 -2.97333,13.14084 -0.88678,4.42082 -1.66787,8.88093 -2.34132,13.37797 -0.67346,4.497 -1.23908,9.03093 -1.69363,13.59852 -0.45454,4.5676 -0.79851,9.16924 -1.02856,13.80176 -0.23006,4.63254 -0.34615,9.29585 -0.34615,13.98768 0,2.13797 -0.10808,4.22835 -0.31477,6.27217 -0.20664,2.04381 -0.51169,4.04104 -0.90465,5.99211 -0.39295,1.95105 -0.87441,3.85649 -1.43337,5.71617 -0.55897,1.85965 -1.1955,3.6739 -1.90016,5.44353 -0.43516,1.09281 -0.9406,2.13688 -1.42513,3.19558 0.48453,-0.9854 0.98997,-1.95706 1.42513,-2.97414 0.70466,-1.64709 1.34119,-3.33602 1.90016,-5.06684 0.55896,-1.73085 1.04042,-3.50369 1.43337,-5.3196 0.39295,-1.81591 0.69801,-3.67513 0.90465,-5.5774 0.20669,-1.90225 0.31477,-3.84772 0.31477,-5.83763 0,-4.36685 0.11606,-8.70771 0.34615,-13.0194 0.23005,-4.31164 0.57402,-8.59465 1.02856,-12.84589 0.45455,-4.25125 1.02017,-8.47119 1.69363,-12.65674 0.67345,-4.18558 1.45452,-8.33636 2.34132,-12.45098 0.88679,-4.11461 1.87879,-8.19199 2.97333,-12.23043 1.09456,-4.03842 2.29207,-8.03795 3.58884,-11.99495 1.29674,-3.95705 2.69275,-7.87176 4.18612,-11.74217 1.49337,-3.87039 3.08415,-7.69677 4.76859,-11.47532 1.68441,-3.77846 3.46293,-7.5098 5.33283,-11.1911 1.86988,-3.68138 3.83078,-7.31311 5.88058,-10.89205 2.04979,-3.57901 4.18851,-7.10508 6.41262,-10.57644 2.22413,-3.47133 4.53364,-6.8875 6.92651,-10.246 2.39287,-3.35846 4.86863,-6.65863 7.42467,-9.89901 2.55606,-3.24036 5.19266,-6.42012 7.90631,-9.53715 2.71365,-3.11698 5.50493,-6.17119 8.37062,-9.15959 2.86569,-2.98842 5.80543,-5.91179 8.81756,-8.76635 3.01214,-2.85458 6.09662,-5.6411 9.24966,-8.35657 0.94026,-0.80978 1.88868,-1.61117 2.84114,-2.40825 26.00187,9.79251 41.78103,11.151 64.42532,-0.89968 21.13565,-11.24783 28.57613,-31.42191 32.3457,-50.80035 0.0894,-0.0264 0.17825,-0.0539 0.26767,-0.0801 4.17016,-1.22773 8.384,-2.36174 12.63934,-3.39798 4.25538,-1.03625 8.55227,-1.97525 12.88722,-2.81472 4.33495,-0.83947 8.70792,-1.5791 13.1169,-2.21656 4.40897,-0.63746 8.85347,-1.17253 13.33085,-1.60276 4.47741,-0.43021 8.98808,-0.75549 13.5283,-0.97321 4.54027,-0.21772 9.11006,-0.32798 13.70761,-0.32798 4.59754,0 9.16814,0.11015 13.7084,0.32798 4.54027,0.21772 9.05009,0.54215 13.5275,0.97239 4.47733,0.43023 8.92277,0.96612 13.33166,1.60358 4.40901,0.63746 8.78194,1.37709 13.11689,2.21656 4.33495,0.83947 8.63184,1.77847 12.88722,2.81472 4.25538,1.03624 8.46915,2.17025 12.63939,3.39798 4.17015,1.22778 8.29631,2.54988 12.37581,3.96391 4.07947,1.41402 8.11257,2.91905 12.09576,4.51411 3.98318,1.59507 7.91702,3.27944 11.79835,5.0503 3.88121,1.77084 7.70967,3.62854 11.48355,5.56994 3.77385,1.94137 7.49309,3.96718 11.15393,6.0739 3.66086,2.10668 7.26387,4.29458 10.80613,6.56134 3.54226,2.26673 7.02366,4.61231 10.44182,7.0339 3.41798,2.42156 6.77256,4.91878 10.0609,7.48992 3.28834,2.57113 6.51053,5.21562 9.66355,7.93111 3.15303,2.71547 6.23668,5.50199 9.24881,8.35657 3.01216,2.85456 5.95272,5.77793 8.81841,8.76635 2.86569,2.9884 5.65697,6.04261 8.37064,9.15958 2.71361,3.11704 5.34941,6.2968 7.90546,9.53716 2.55606,3.24038 5.03175,6.54055 7.4247,9.899 2.39282,3.35851 4.70316,6.77468 6.92729,10.24601 2.22414,3.47136 4.36203,6.99743 6.4118,10.57644 2.04979,3.57894 4.01153,7.21067 5.88142,10.89205 1.86986,3.6813 3.64846,7.41264 5.33281,11.1911 1.68445,3.77855 3.27439,7.60493 4.76777,11.47531 1.49337,3.87042 2.89021,7.78513 4.18694,11.74218 1.29677,3.957 2.49345,7.95652 3.58804,11.99495 1.09452,4.03843 2.08652,8.11582 2.97333,12.23043 0.88675,4.11462 1.6687,8.2654 2.34216,12.45098 0.67344,4.18555 1.23906,8.40549 1.69361,12.65673 0.45454,4.25125 0.79767,8.53426 1.02774,12.8459 0.2301,4.31169 0.34699,8.65255 0.34699,13.0194 0,0.9579 0.0355,1.90219 0.10487,2.83374 0.0695,0.93152 0.17309,1.84992 0.30815,2.7552 0.27038,1.81062 0.66796,3.56909 1.17728,5.27586 0.50944,1.70681 1.13104,3.36223 1.84814,4.96686 0.7171,1.60453 1.52966,3.15814 2.4231,4.662 0.8775,1.47696 1.83591,2.90317 2.85355,4.28444 -1.01764,-1.48406 -1.97605,-3.01652 -2.85355,-4.60332 -0.89344,-1.61576 -1.706,-3.28505 -2.4231,-5.009 -0.7171,-1.72399 -1.33873,-3.50233 -1.84814,-5.33618 -0.50937,-1.83378 -0.9069,-3.72291 -1.17728,-5.66826 -0.13509,-0.97262 -0.23856,-1.95925 -0.30815,-2.96009 -0.0695,-1.00084 -0.10487,-2.01602 -0.10487,-3.04521 0,-4.69183 -0.11687,-9.35514 -0.34699,-13.98767 -0.23007,-4.63252 -0.5732,-9.23417 -1.02774,-13.80176 -0.45455,-4.5676 -1.02017,-9.10152 -1.69361,-13.59852 -0.67346,-4.49704 -1.45541,-8.95716 -2.34216,-13.37797 -0.88681,-4.42082 -1.87881,-8.80188 -2.97333,-13.14084 -1.09459,-4.33897 -2.29127,-8.63572 -3.58804,-12.88722 -1.29673,-4.25148 -2.69357,-8.4578 -4.18694,-12.61624 -1.49338,-4.1584 -3.08332,-8.26904 -4.76777,-12.32874 -1.68438,-4.05967 -3.46295,-8.06858 -5.33281,-12.02385 -1.86989,-3.95531 -3.83163,-7.85728 -5.88142,-11.7025 -2.04977,-3.84533 -4.18766,-7.63411 -6.4118,-11.36379 -2.22413,-3.72968 -4.53452,-7.40014 -6.92729,-11.00854 -2.39292,-3.60839 -4.86864,-7.15445 -7.4247,-10.63595 -2.55605,-3.48148 -5.19185,-6.89786 -7.90546,-10.2468 -2.71367,-3.34897 -5.50495,-6.6304 -8.37064,-9.84118 -2.86569,-3.21079 -5.80625,-6.3512 -8.81841,-9.41818 -3.01213,-3.06698 -6.09578,-6.06113 -9.24881,-8.97868 -3.15302,-2.91753 -6.37521,-5.75849 -9.66355,-8.52096 -3.28834,-2.76248 -6.64292,-5.44582 -10.0609,-8.04759 -3.41813,-2.60179 -6.89956,-5.12225 -10.44182,-7.55769 -3.54226,-2.43543 -7.14527,-4.78613 -10.80613,-7.04958 -3.66084,-2.26347 -7.38008,-4.43996 -11.15393,-6.52582 -3.77388,-2.08586 -7.60234,-4.08123 -11.48355,-5.98385 -3.88133,-1.90263 -7.81517,-3.71243 -11.79835,-5.4262 -3.98319,-1.71375 -8.01629,-3.3311 -12.09576,-4.85036 -4.0795,-1.51925 -8.20562,-2.93972 -12.37581,-4.258833 -4.17024,-1.319112 -8.38401,-2.537441 -12.63939,-3.650783 -4.25538,-1.113357 -8.55227,-2.121792 -12.88722,-3.023736 -4.33495,-0.901945 -8.70792,-1.696903 -13.11689,-2.381807 -4.40894,-0.684919 -8.85428,-1.260295 -13.33166,-1.722546 -4.47741,-0.462219 -8.98723,-0.811153 -13.5275,-1.045077 -4.54026,-0.233939 -9.11086,-0.352771 -13.7084,-0.352771 z" />
    <path
       id="path843"
       style="fill:#0d81a6;fill-opacity:1;stroke:none;stroke-width:0.264583px;stroke-linecap:butt;stroke-linejoin:miter;stroke-opacity:1"
       d="m 133.00147,420.83618 c 28.00088,45.16011 65.05592,80.26098 109.05402,79.60762 48.51638,-0.72045 136.69583,-52.93598 136.69583,-52.93598 12.0697,-7.85856 12.05886,-8.5919 26.87972,-0.77576 0,0 89.85842,37.64975 137.21971,45.38988 47.31087,7.73187 82.30629,-18.902 106.72889,-58.37456 -0.76318,0.8701 -1.51261,1.76015 -2.29081,2.60817 -1.51348,1.6492 -3.0555,3.25577 -4.62608,4.81728 -1.57059,1.56157 -3.17051,3.07779 -4.79864,4.54637 -1.62816,1.46859 -3.28504,2.88925 -4.97122,4.25966 -1.68613,1.3704 -3.40148,2.69031 -5.14609,3.95729 -1.74461,1.26695 -3.51828,2.48094 -5.32174,3.63922 -1.8035,1.15829 -3.63618,2.26111 -5.49902,3.30543 -1.86281,1.04436 -3.75596,2.02998 -5.6786,2.95519 -1.92256,0.92517 -3.8753,1.79006 -5.85815,2.59084 -1.98282,0.80076 -3.99577,1.53803 -6.03929,2.20911 -2.04352,0.67112 -4.11737,1.27558 -6.222,1.81175 -2.10461,0.53619 -4.24007,1.00351 -6.40624,1.39951 -2.16619,0.39605 -4.36314,0.72096 -6.59131,0.97157 -2.22822,0.25063 -4.48728,0.42715 -6.77794,0.5271 -2.29062,0.0999 -4.61252,0.12374 -6.96608,0.0678 -2.35352,-0.0559 -4.73891,-0.19187 -7.15581,-0.40895 -2.41683,-0.21712 -4.86564,-0.51537 -7.34628,-0.89886 -3.12922,-0.48378 -6.43389,-1.08442 -9.87996,-1.78532 -3.44602,-0.70094 -7.03327,-1.50247 -10.72783,-2.38763 -3.69455,-0.88511 -7.49649,-1.85439 -11.37121,-2.89072 -3.87473,-1.03634 -7.82263,-2.13932 -11.80922,-3.29387 -7.97319,-2.30909 -16.1012,-4.82165 -24.11191,-7.40568 -8.01072,-2.58396 -15.90365,-5.23942 -23.40532,-7.83444 -7.50168,-2.59502 -14.61218,-5.12963 -21.05829,-7.47174 -6.44608,-2.34214 -12.22768,-4.49229 -17.07166,-6.31764 -9.68789,-3.65062 -15.62485,-6.00365 -15.62485,-6.00365 -1.9585,-0.97702 -3.67201,-1.82039 -5.19609,-2.53299 -1.52402,-0.71263 -2.85922,-1.2944 -4.06001,-1.74815 -1.20079,-0.45379 -2.26718,-0.77932 -3.25583,-0.97981 -0.98865,-0.20055 -1.89897,-0.27605 -2.78657,-0.22889 -0.88767,0.0472 -1.75302,0.21712 -2.65074,0.50645 -0.89777,0.28932 -1.82851,0.69848 -2.84753,1.22434 -2.038,1.05183 -4.42969,2.571 -7.61958,4.53563 0,0 -1.45617,0.81548 -4.10528,2.24465 -2.64916,1.4292 -6.49083,3.47195 -11.26117,5.92522 -4.77028,2.45323 -10.46911,5.31744 -16.83272,8.38958 -6.36356,3.07219 -13.39197,6.35195 -20.82094,9.63797 -3.71447,1.64298 -7.52918,3.2877 -11.41103,4.90818 -3.8818,1.62049 -7.83071,3.21712 -11.81389,4.76446 -3.98319,1.54735 -8.0007,3.04512 -12.01925,4.46866 -4.01856,1.42358 -8.03835,2.77262 -12.0263,4.02173 -3.98793,1.24913 -7.94368,2.3987 -11.83499,3.42275 -3.89133,1.02412 -7.71824,1.92263 -11.44694,2.67099 -1.86437,0.37417 -3.70405,0.71131 -5.51539,1.0071 -1.81136,0.29576 -3.59434,0.5507 -5.34443,0.76169 -1.75007,0.21103 -3.4671,0.37827 -5.14765,0.49819 -1.68053,0.11991 -3.32393,0.1923 -4.92668,0.21481 -2.08368,0.0291 -4.15304,-0.0128 -6.20717,-0.1247 -2.05414,-0.11191 -4.09318,-0.29289 -6.11739,-0.54113 -2.02417,-0.2483 -4.03375,-0.56414 -6.02757,-0.94433 -1.99383,-0.38014 -3.97242,-0.82518 -5.93546,-1.33256 -1.96304,-0.50741 -3.91069,-1.07681 -5.84254,-1.70686 -1.93185,-0.63004 -3.84782,-1.32062 -5.74806,-2.06868 -1.90025,-0.7481 -3.7846,-1.55416 -5.65282,-2.4157 -1.86824,-0.86152 -3.7202,-1.77826 -5.55598,-2.7486 -1.83582,-0.97035 -3.65545,-1.99382 -5.45843,-3.06836 -1.80295,-1.07456 -3.58954,-2.20069 -5.35923,-3.37483 -1.76969,-1.17419 -3.5225,-2.39654 -5.25852,-3.66565 -1.73604,-1.26915 -3.45506,-2.58457 -5.15701,-3.94411 -1.70196,-1.3595 -3.38652,-2.76315 -5.05397,-4.20843 -1.66747,-1.44528 -3.31757,-2.93231 -4.9501,-4.45876 -1.63257,-1.52644 -3.24748,-3.09288 -4.84474,-4.69589 -1.59723,-1.60301 -3.177,-3.24312 -4.73852,-4.91808 -1.5615,-1.67497 -3.1054,-3.38402 -4.63078,-5.12633 -1.52538,-1.74225 -3.03186,-3.51705 -4.52069,-5.32209 -1.31275,-1.59154 -2.55661,-3.28944 -3.84063,-4.92637 z" />
    <path
       style="fill:#000000;stroke:none;stroke-width:0.264583px;stroke-linecap:butt;stroke-linejoin:miter;stroke-opacity:1"
       d="M 68.320055,211.63218 384.70423,305.83033 693.94448,197.43634 c 45.18761,-19.98289 17.48037,301.62804 -141.42879,277.08455 -50.11411,-7.74013 -145.19547,-45.39025 -145.19547,-45.39025 -15.68231,-7.81616 -15.67078,-7.08219 -28.44201,0.77637 0,0 -93.30529,52.2157 -144.6416,52.93614 C 100.75689,484.71636 27.413026,192.93036 68.320055,211.63218 Z"
       id="path843-8"
       sodipodi:nodetypes="cccsccsc" />
    <path
       id="path843-2"
       style="fill:#e6e6e6;stroke:none;stroke-width:0.264583px;stroke-linecap:butt;stroke-linejoin:miter;stroke-opacity:1"
       d="m 693.88634,204.72629 c -1.25066,-0.0217 -2.57433,0.26944 -3.9672,0.8939 L 384.89477,314.01439 72.824092,219.81604 c -3.715787,-1.72225 -6.474173,-0.8085 -8.320221,2.26364 l 148.352079,49.62725 -78.08748,139.9831 c 3.76306,5.15382 7.69813,10.18252 11.82313,15.06249 5.79812,6.81441 12.03179,13.32502 18.7364,19.28743 l 89.42894,-160.31645 13.51675,4.52153 -91.90576,164.75541 c 4.75028,3.48829 9.71626,6.68027 14.9146,9.49753 1.84611,0.99665 3.72609,1.93781 5.63521,2.82047 l 94.4652,-169.34306 11.51744,3.8532 -94.75682,169.8652 c 4.42577,1.41356 8.95361,2.49676 13.53658,3.20298 l 94.13389,-168.7482 67.67048,22.63667 77.76113,-23.10674 -62.34505,111.76241 c 6.30076,1.6391 11.83379,5.4066 18.02758,7.39742 22.08209,8.36754 44.27987,16.53065 66.7402,23.85197 L 583.75142,269.27553 614.71745,260.07381 505.678,455.54242 c 9.93828,2.94255 19.93617,5.68417 30.00685,8.16819 l 120.46349,-215.9482 48.9126,-14.53456 c 1.03481,-0.39719 2.02554,-0.62755 2.97414,-0.70635 -2.07198,-17.0386 -6.90065,-27.66931 -14.14874,-27.79521 z" />
    <g
       id="g909"
       transform="matrix(2.0042854,0.96270863,-1.2886904,1.4972898,361.9437,-150.79819)"
       style="stroke-width:0.48555" />
    <path
       style="fill:#000000;fill-rule:nonzero;stroke:none;stroke-width:15.875;stroke-linecap:butt;stroke-linejoin:miter;stroke-miterlimit:4;stroke-dasharray:none;stroke-opacity:1"
       d="m 127.91796,547.74277 v 0 0 c -0.38713,0.75483 -1.43855,4.08273 6.4189,9.54251 v 0 c 5.14235,3.5732 19.88675,12.1098 44.70033,21.44923 v 0 c 14.36103,5.40527 33.21132,11.43178 53.94421,15.38199 v 0 c 18.50323,3.52539 39.43494,5.57401 60.20984,3.47158 h -10e-6 c 3.87204,-0.256 7.66904,0.1044 11.49272,0.98338 v 0 c 3.78778,0.87068 7.66157,2.26435 11.71086,4.13841 h 3e-5 c 8.24724,3.81687 16.45836,9.24078 25.72574,15.48753 v 0 c 9.244,6.23096 19.15225,13.00559 29.6962,18.22429 l 2e-5,2e-5 c 5.55443,2.74916 11.33303,5.09429 17.3788,6.75271 v 0 c 6.37277,1.74813 12.90627,2.69461 19.61206,2.61361 l 2e-5,-2e-5 c 0.97543,-0.0112 1.94037,-0.0438 2.89456,-0.0945 v 0 c 5.70725,-0.30371 11.28194,-1.29429 16.74628,-2.85938 v 0 c 6.03889,-1.72964 11.81078,-4.12218 17.38097,-6.93693 v 0 c 10.53643,-5.3243 20.33877,-12.16076 29.66842,-18.65293 v 0 c 9.23074,-6.42335 17.61433,-12.227 26.23122,-16.59254 h 10e-6 c 4.23961,-2.1479 8.39264,-3.8692 12.5478,-5.09266 v 0 c 4.19748,-1.23591 8.42904,-1.97333 12.78888,-2.11231 h 3e-5 c 66.96595,0.47907 110.14341,-16.20638 133.35367,-28.64073 v 0 c 23.15039,-12.40228 32.57965,-23.57242 34.75133,-26.75427 v 0 c 3.33859,-4.89156 1.22956,-7.21561 0.73994,-7.66647 -0.63124,-0.58126 -2.65322,-2.195 -7.41214,7.6e-4 v 0 c -4.33922,2.0021 -12.81531,8.44652 -35.89878,17.98303 v 0 c -21.91932,9.05556 -62.68488,22.12968 -124.95434,19.66864 h -3e-5 c -6.74634,-0.3944 -13.28827,0.16947 -19.64201,1.47302 v 0 c -6.24866,1.28201 -12.2106,3.25752 -17.9049,5.64061 h -2e-5 c -11.22742,4.6987 -21.75739,11.15199 -31.12615,16.97745 v 0 c -10.17245,6.32519 -18.39385,11.5168 -26.9359,15.48792 v 0 c -4.31003,2.00368 -8.30562,3.49572 -12.13039,4.50988 v 0 c -3.43473,0.91076 -6.6946,1.42568 -9.86119,1.58183 v 0 c -0.53317,0.0262 -1.07013,0.0427 -1.61106,0.0486 v 0 c -3.46707,0.0377 -7.08292,-0.41456 -10.97853,-1.41735 v 0 c -3.73899,-0.96246 -7.68073,-2.41717 -11.96358,-4.39203 l -3e-5,-10e-6 c -8.55937,-3.9468 -16.79017,-9.11831 -26.97931,-15.32725 v 0 c -9.40924,-5.73371 -19.97761,-12.01042 -31.16284,-16.28098 h -3e-5 c -5.69814,-2.17556 -11.66646,-3.87986 -17.89796,-4.77757 v 0 c -6.35696,-0.91577 -12.85299,-0.9719 -19.47089,0.0727 h -3e-5 c -17.45411,2.63151 -35.93944,1.91374 -53.3272,-0.33184 v 0 c -19.29851,-2.49236 -37.50155,-6.90482 -51.64525,-10.82271 v 0 c -24.8354,-6.87959 -38.92231,-12.11119 -45.8076,-13.83108 v 0 c -8.96275,-2.23882 -10.82471,0.20086 -11.28267,1.09382 z"
       id="path1001-1"
       sodipodi:nodetypes="csasc" />
  </g>
</svg>
